<svg width="90" height="36" viewBox="0 0 90 36" fill="none" xmlns="http://www.w3.org/2000/svg">
<path d="M57.165 33.5312C57.2847 33.4078 57.4202 33.2797 57.543 33.1406C57.7304 32.9251 57.8973 32.9219 58.1036 33.1313C59.8517 34.8934 62.0816 35.1699 64.3745 34.9231C65.7934 34.77 67.1446 34.231 67.7855 32.736C68.2312 31.6972 67.8863 30.3834 66.9036 29.7211C65.6091 28.8494 64.1477 28.4417 62.7194 27.923C61.2406 27.3872 59.7131 26.9154 58.5635 25.7922C56.7682 24.0379 57.3099 21.2026 59.4564 19.9888C61.0769 19.0734 62.8123 18.7609 64.6107 18.9328C66.2768 19.0921 67.7587 19.7998 68.995 20.962C69.2249 21.1776 69.2816 21.3416 68.9981 21.5291C68.8013 21.6603 68.732 22.0509 68.3335 21.6947C66.9099 20.42 65.2359 19.7482 63.2957 19.9029C62.102 19.9982 60.9556 20.2528 60.1052 21.212C59.3682 22.043 59.4013 23.1912 60.1005 24.0036C61.1083 25.1736 62.5524 25.5548 63.9178 26.0625C65.4517 26.6327 67.0186 27.0795 68.4091 28.0152C70.3824 29.3415 70.5792 31.7878 69.143 33.4937C67.995 34.8575 66.4942 35.5229 64.7635 35.8338C62.7855 36.1884 60.9005 35.9931 59.1115 35.0824C58.3587 34.6981 57.6816 34.1951 57.165 33.5312Z" fill="#020202"/>
<path d="M11.5855 20.2675C12.332 20.0645 13.0784 20.0645 13.8265 20.2675C14.9178 22.6858 16.0044 25.1071 17.1036 27.5238C17.7446 28.9328 18.4107 30.3294 19.0532 31.7369C19.6406 33.0226 20.2123 34.3145 20.8359 35.7079C20.1524 35.7079 19.5068 35.7001 18.8627 35.7126C18.6217 35.7173 18.6217 35.4924 18.5745 35.3908C17.2154 32.5055 15.88 29.6077 14.532 26.7161C13.765 25.0696 12.9808 23.4325 12.2139 21.7875C12.1792 21.7125 12.1729 21.611 12.0784 21.6344C11.9367 21.6704 11.8847 21.786 11.8233 21.9281C11.5131 22.6483 11.1588 23.3481 10.8375 24.062C9.61702 26.7786 8.41702 29.503 7.18237 32.2118C6.73828 33.185 6.25954 34.1411 5.85324 35.1315C5.5934 35.7642 5.55875 35.7501 4.56348 35.6501C5.21072 34.2645 5.86426 32.9085 6.48159 31.5354C7.66426 28.9079 8.81859 26.2678 9.9997 23.6402C10.5099 22.5077 11.0564 21.3907 11.5855 20.2675Z" fill="#020202"/>
<path d="M25.7162 19.2801C26.7729 19.2801 27.8375 19.2051 28.8863 19.2957C30.6123 19.4441 32.1855 19.9722 33.2674 21.4593C34.7257 23.4636 33.8784 25.9396 31.828 27.0691C31.3005 27.3596 30.7572 27.6408 30.1871 27.7611C29.7241 27.8595 29.9068 28.0407 30.0123 28.2094C31.132 29.9997 32.2658 31.7821 33.3918 33.5676C33.765 34.1581 34.1272 34.7533 34.4989 35.3454C34.6579 35.5984 34.669 35.739 34.2926 35.7062C33.9839 35.6797 33.6595 35.65 33.3619 35.7125C32.6564 35.8609 32.2753 35.5188 31.932 34.9689C30.343 32.4226 28.7351 29.8903 27.1257 27.3565C26.8753 26.9628 27.154 26.9535 27.4107 26.9441C27.8044 26.9285 28.1981 26.93 28.5918 26.9378C30.2249 26.9769 31.5572 25.7006 31.7572 24.1962C32.0705 21.8296 30.554 20.2893 28.2658 20.2721C26.5446 20.2596 24.8249 20.2705 23.1036 20.269C22.7115 20.269 22.069 19.7691 22.0469 19.4348C22.0296 19.1801 22.2359 19.2848 22.3524 19.2848C23.4768 19.2786 24.5965 19.2801 25.7162 19.2801Z" fill="#020202"/>
<path d="M46.8108 27.9235C46.8108 30.3089 46.7998 32.6928 46.8203 35.0782C46.825 35.5484 46.7147 35.7609 46.2061 35.7078C45.7588 35.6609 45.1352 35.8452 44.9053 35.6156C44.6738 35.386 44.8218 34.7705 44.8203 34.3237C44.8171 29.8622 44.8092 25.4006 44.8313 20.9391C44.8344 20.3986 44.6848 20.2424 44.1399 20.2549C42.5242 20.2892 40.9069 20.2393 39.2911 20.2846C38.7888 20.2986 38.8596 20.0534 38.836 19.7441C38.8092 19.3879 38.8817 19.266 39.2895 19.2676C43.5998 19.2863 47.9116 19.2817 52.2234 19.2738C52.5825 19.2738 52.7919 19.3129 52.7998 19.7565C52.8077 20.2377 52.5699 20.2736 52.1919 20.2705C50.5966 20.258 48.9998 20.2814 47.4045 20.2549C46.9541 20.2471 46.7903 20.3236 46.7966 20.8282C46.8297 23.1949 46.8108 25.5584 46.8108 27.9235Z" fill="#030303"/>
<path d="M74.0469 19.2733C74.9225 19.2733 75.6359 19.2795 76.3492 19.2686C76.5004 19.267 76.5981 19.3482 76.6579 19.4357C78.7051 22.4335 81.0374 25.2267 83.0595 28.2416C83.2075 28.4619 83.2831 28.6415 83.2831 28.8931C83.2768 31.0098 83.2689 33.1265 83.2894 35.2448C83.2925 35.6182 83.217 35.715 82.8264 35.7119C81.2878 35.6994 81.2878 35.7166 81.2878 34.2169C81.2878 32.7375 81.2736 31.2566 81.2988 29.7772C81.3051 29.4164 81.2122 29.1149 81.017 28.8431C78.8359 25.8015 76.6485 22.7663 74.4595 19.7294C74.3776 19.6154 74.2689 19.5185 74.0469 19.2733Z" fill="#020202"/>
<path d="M23.77 8.02597L23.7637 8.04003C23.77 8.04315 23.7843 8.00566 23.7859 7.99316L23.77 8.02597Z" fill="#020202"/>
<path d="M90 19.3841C88.0756 22.0601 86.1559 24.7392 84.2158 27.4043C84.104 27.5589 83.9355 27.9479 83.6772 27.7214C83.4158 27.4918 83.1024 27.1668 83.4347 26.7216C84.2221 25.6672 84.9906 24.5971 85.7733 23.5379C86.7213 22.2554 87.737 21.015 88.6048 19.681C89.03 19.0264 89.5276 19.4373 89.9559 19.2373C89.9701 19.2857 89.9859 19.3342 90 19.3841Z" fill="#060606"/>
<path d="M38.7699 11.497C38.6896 11.344 38.581 11.3799 38.4203 11.4674C37.4062 12.0157 36.329 12.1313 35.2062 11.8704C34.2613 11.6501 33.444 11.2096 32.7148 10.4957C34.518 10.68 36.0282 9.5006 35.8755 7.72755C35.7794 6.60435 34.9306 5.87482 33.4833 5.95449C32.781 5.99355 32.1416 6.29348 31.6755 6.83087C30.9778 7.63538 30.9542 8.54768 31.392 9.5131C30.9384 9.20066 30.6644 8.78669 30.3794 8.38053C29.4455 7.04957 28.8865 5.52959 28.1416 4.10333C27.7133 3.28164 27.2723 2.474 26.4377 1.96473C26.2203 1.83195 26.2329 1.607 26.3306 1.37424C26.4534 1.0868 26.5558 0.794675 26.5337 0.463496C26.5196 0.266664 26.5085 0.0932642 26.3054 0.0198427C26.0818 -0.0598276 25.9479 0.116697 25.855 0.260415C25.7196 0.468183 25.5951 0.696258 25.5369 0.932145C25.4392 1.34143 25.2597 1.55857 24.792 1.50077C23.5416 1.3508 22.5258 1.84601 21.5778 2.61303C21.1321 2.97233 20.6377 3.40817 19.9558 3.10511C19.8203 3.04575 19.6676 2.91453 19.5825 3.14885C19.5085 3.35818 19.6755 3.42848 19.8329 3.47534C20.6077 3.69561 21.2329 3.39724 21.8014 2.90828C22.6455 2.18031 23.6125 1.75697 24.7432 1.74447C25.0707 1.74134 25.1936 1.77259 25.0518 2.20687C24.8329 2.8786 24.5558 3.53002 24.3558 4.20643C24.1573 4.88285 23.877 5.53271 23.6424 6.19663L23.6408 6.19507L23.1684 7.52447L23.1416 7.60257L22.7526 8.69452L22.7479 8.70546L22.5621 9.22878L22.5369 9.29596C21.8251 11.383 21.0912 13.4544 20.4361 15.5508C20.2203 16.2413 19.8392 16.8974 19.8755 17.6645C21.0912 14.7245 22.3526 11.8048 23.4361 8.81325C23.4644 8.73358 23.4928 8.65391 23.5227 8.57424C23.5274 8.56174 23.5321 8.54924 23.5369 8.53675L23.7652 8.03842L23.7715 8.02436L23.7873 7.99155L23.8156 7.92907L23.9967 7.53853L24.0014 7.52915L24.0329 7.46042C24.6692 5.78422 25.2912 4.10489 25.9148 2.42401C26.0455 2.07096 26.1841 2.07408 26.4455 2.33809C27.107 3.00357 27.5983 3.77684 28.0172 4.60322C29.1117 6.75744 29.8802 9.06476 32.1132 10.5348C33.2755 11.2971 34.3573 12.1219 35.7306 12.3515C36.6975 12.5156 37.6597 12.2453 38.5542 11.8282C38.6566 11.7814 38.8692 11.6892 38.7699 11.497ZM25.7731 2.10533C25.5621 2.474 25.5794 2.93484 25.2944 3.26914C25.2581 3.30975 25.1983 3.33162 25.1605 3.35506C25.0361 3.33319 25.0046 3.2582 25.0298 3.17385C25.1416 2.77081 25.1589 2.32872 25.466 1.9991C25.5022 1.96005 25.529 1.81633 25.6377 1.91943C25.6944 1.97254 25.7888 2.07721 25.7731 2.10533ZM25.9038 1.61793C25.5747 1.64293 25.6329 1.44453 25.6581 1.33362C25.729 1.03681 25.7747 0.700945 26.0833 0.546291C26.151 0.511923 26.3369 0.691572 26.266 0.838415C26.1337 1.10554 26.1054 1.43516 25.9038 1.61793ZM31.4849 8.20713C31.4487 7.30733 32.4266 6.25912 33.7652 6.31379C34.7652 6.22787 35.6361 7.11205 35.581 7.93531C35.5054 9.08194 34.6692 10.1005 33.2644 10.152C32.0629 10.1942 31.529 9.27096 31.4849 8.20713Z" fill="#020202"/>
<path d="M23.8153 7.92937L23.787 7.99186C23.7854 8.00436 23.7712 8.04185 23.7649 8.03872L23.5366 8.53705C23.5318 8.54955 23.5271 8.56205 23.5224 8.57455C23.494 8.65422 23.4657 8.73545 23.4358 8.81356L22.9775 8.73857L22.7492 8.70108L22.6925 8.69171L22.4641 8.65422C21.3177 8.74951 20.1744 8.84324 19.0547 9.14005C18.9019 9.18066 18.7555 9.24003 18.6248 9.30251C18.1255 9.53528 17.9035 9.77116 18.1334 10.4616C18.8972 12.758 18.2358 14.8091 16.6988 16.6119C15.9003 17.546 14.9019 18.2287 13.7917 18.7473C13.598 18.8379 13.4515 18.9379 13.3381 19.1566C14.7838 19.1566 16.1996 19.1504 17.6137 19.1597C17.9381 19.1629 18.2909 19.216 18.2988 19.6393C18.3082 20.0642 18.0027 20.1642 17.6342 20.1423C17.5712 20.1392 17.5098 20.1408 17.4468 20.1408C16.4941 20.1408 15.5397 20.1423 14.5854 20.1392C14.3649 20.1392 14.1429 20.122 13.9523 20.2642C13.2059 20.0627 12.4594 20.0627 11.7114 20.2642C11.3885 19.9861 11.0437 20.1736 10.7696 20.2986C8.5098 21.3155 6.3224 22.4497 4.42476 24.079C3.42161 24.9413 2.42004 25.8021 1.50193 26.755C1.23579 27.0315 0.96492 27.2002 0.605865 26.9612C0.20744 26.6987 0.40429 26.3847 0.560196 26.0786C1.45783 24.3024 2.35705 22.5278 3.24208 20.7453C3.28618 20.6547 3.46571 20.5688 3.34602 20.4376C3.25783 20.3423 3.135 20.3876 3.01216 20.4282C2.35232 20.6438 1.67988 20.8203 1.03106 21.0609C0.842085 21.1312 0.675156 21.1062 0.500353 21.1249C0.223188 21.1546 0.0751564 20.9531 0.0184635 20.7485C-0.0398042 20.5391 0.0263376 20.3735 0.306652 20.2501C1.22949 19.8487 2.19957 19.5987 3.15075 19.2988C3.80114 19.0926 4.19799 18.7739 4.5035 18.1678C6.13342 14.9419 7.66571 11.6676 9.3224 8.4527C9.85311 7.42323 10.1964 6.29067 10.8374 5.31119C11.6657 4.0474 12.8594 3.36318 14.3618 3.08199C15.8248 2.80861 17.0972 3.11636 18.2484 3.99117C18.7917 4.40514 19.146 4.99564 19.4877 5.57832C19.6515 5.85795 19.8311 6.08915 20.1444 6.22818C21.0736 6.63747 22.0011 7.05769 22.9145 7.5029L23.135 7.60601L23.4468 7.75285L23.8153 7.92937Z" fill="#2B1D5A"/>
<path d="M10.8385 9.64733C11.3204 10.1425 11.8527 9.80667 12.3362 9.68951C13.3519 9.44268 14.5913 9.9457 14.9629 10.8564C15.2779 11.6297 15.0133 12.3124 14.5488 12.9419C13.6952 14.101 12.481 14.8306 11.2873 15.5632C10.0905 16.299 8.85112 16.9707 7.55663 17.5284C7.32829 17.6268 7.09049 17.7065 6.85742 17.7956C7.06372 16.8895 7.51411 16.085 7.96608 15.2883C8.196 14.8837 8.40545 14.4713 8.60073 14.0495C9.29364 12.5576 10.0228 11.0814 10.8385 9.64733Z" fill="#39C2E1"/>
<path d="M13.8267 8.78392C13.2849 8.53553 12.7038 8.6277 12.1621 8.70112C11.8897 8.73861 11.6094 8.73861 11.3369 8.78392C11.518 7.94972 11.8897 7.19051 12.2739 6.43755C12.6723 5.65647 13.2629 5.05348 14.0062 4.57858C14.2015 4.45517 14.4157 4.43798 14.6125 4.34425C14.8267 4.24428 15.096 4.23959 15.1952 3.96777C15.633 4.05682 16.0928 4.08962 16.5038 4.2474C17.2991 4.55202 17.9133 5.08628 18.3101 5.85799C18.6471 6.51253 19.0834 7.07491 19.8503 7.29205C20.1432 7.37485 20.4267 7.50607 20.7054 7.76383C19.5054 8.03564 18.3038 8.14031 17.3212 8.89795C17.0125 9.1354 16.7401 9.3666 16.6897 9.7712C16.1605 9.26506 15.5684 8.87608 14.833 8.72768C14.4881 8.65894 14.1495 8.55272 13.8267 8.78392Z" fill="#46BEAE"/>
<path d="M13.8264 8.7841C14.7429 8.4248 15.461 8.9122 16.1854 9.34179C16.3728 9.4527 16.5224 9.6261 16.6894 9.77138C16.935 10.4947 17.335 11.1836 17.187 11.9943C16.965 12.6114 16.8169 13.2488 16.4295 13.808C15.5004 15.1468 14.2264 16.0919 12.8768 16.9573C12.0768 17.4697 11.2468 17.9384 10.4358 18.4351C9.54763 18.7288 8.73976 19.199 7.89094 19.5802C7.22322 19.8801 6.54763 20.1504 5.86259 20.3988C5.6059 20.4925 5.3996 20.6237 5.28622 20.8971C5.06574 21.4298 4.70826 21.9062 4.61535 22.4921C4.01535 22.9919 3.41535 23.4903 2.81692 23.9902C2.787 23.9699 2.75551 23.9511 2.72559 23.9308C3.16023 23.0076 3.59645 22.0843 4.03267 21.1611C4.05787 21.1095 4.10196 21.0642 4.11614 21.0096C4.42165 19.9239 5.27519 19.5146 6.25314 19.1397C8.91614 18.1164 11.4657 16.8683 13.735 15.114C14.5161 14.5094 15.2122 13.8486 15.7067 12.9691C16.8531 10.9305 15.6516 9.16527 13.8264 8.7841Z" fill="#F3F8FA"/>
<path d="M15.1952 3.96973C15.1574 4.22123 14.907 4.27279 14.7511 4.31496C13.1542 4.73362 12.433 5.98648 11.8487 7.33306C11.6471 7.79702 11.3385 8.24536 11.3369 8.78587C10.9999 8.97645 10.7542 9.22015 10.8393 9.64974C10.4676 10.3293 10.0708 10.9979 9.72902 11.693C8.97154 13.2349 8.23611 14.7861 7.43926 16.3108C7.19516 16.7779 6.90225 17.2465 6.85501 17.7995C6.52902 17.9667 6.21249 18.1557 5.87233 18.2838C5.76997 18.3229 5.65816 18.5541 5.518 18.365C5.42351 18.2385 5.5243 18.1229 5.59202 17.9901C6.45658 16.2874 7.35264 14.5987 8.14162 12.8631C9.05028 10.8682 10.14 8.96239 10.9747 6.93002C11.7259 5.10229 13.1526 4.06346 15.1952 3.96973Z" fill="#F0F7F9"/>
<path d="M10.4658 18.4146C11.4139 17.8382 12.3855 17.2992 13.302 16.6791C14.68 15.7464 15.9965 14.742 16.7824 13.2079C16.9824 12.8158 16.9587 12.3675 17.1871 11.9941C17.3619 12.5018 17.2154 13.0095 17.0957 13.486C16.6516 15.2637 15.5131 16.5119 13.9477 17.4367C13.1005 17.9366 12.1981 18.3225 11.3351 18.7864C11.269 18.6864 10.8863 18.9832 11.0642 18.5755C10.8658 18.5193 10.6957 18.3521 10.4658 18.4146Z" fill="#40BEE6"/>
<path d="M10.4652 18.4145C10.7062 18.4254 11.007 18.3411 11.0023 18.7519C11.0023 18.7613 11.2196 18.7738 11.3361 18.7847C9.19123 19.872 6.97391 20.8265 5.00698 22.2355C4.881 22.3262 4.74556 22.4043 4.61328 22.4886C4.72824 21.8528 5.09517 21.3248 5.36131 20.7546C5.55344 20.3438 6.01486 20.3563 6.35501 20.2266C7.68572 19.7189 8.95344 19.08 10.2306 18.4598C10.3015 18.427 10.3881 18.4286 10.4652 18.4145Z" fill="#4990CD"/>
<path d="M16.689 6.26445C16.6859 6.77059 16.2811 7.18456 15.7945 7.17831C15.3315 7.17206 14.7945 6.67529 14.8181 6.27694C14.8433 5.86922 15.4134 5.32715 15.8166 5.32715C16.2733 5.32715 16.6906 5.77705 16.689 6.26445Z" fill="#2C1F5B"/>
</svg>
