<svg width="24" height="24" viewBox="0 0 24 24" fill="none" xmlns="http://www.w3.org/2000/svg">
<g clip-path="url(#clip0_458_1627)">
<path d="M17.8411 22.1214C16.618 23.2786 15.2686 23.0982 13.9824 22.5526C12.6149 21.996 11.3648 21.9608 9.92063 22.5526C8.12218 23.3094 7.16766 23.0894 6.08453 22.1214C-0.0306742 15.9834 0.871939 6.63342 7.82206 6.28142C9.50769 6.36942 10.6879 7.19002 11.6807 7.25822C13.1565 6.96562 14.5691 6.12742 16.1487 6.23742C18.0464 6.38702 19.4658 7.11742 20.4135 8.43082C16.5097 10.7188 17.4349 15.7348 21.0205 17.1428C20.3029 18.9798 19.3823 20.7948 17.8388 22.1368L17.8411 22.1214ZM11.5453 6.21542C11.3626 3.48743 13.6304 1.24344 16.2389 1.02344C16.5977 4.16943 13.3054 6.52342 11.5453 6.21542Z" fill="black"/>
</g>
<defs>
<clipPath id="clip0_458_1627">
<rect width="19" height="22" fill="white" transform="translate(2 1)"/>
</clipPath>
</defs>
</svg>
