<svg width="16" height="17" viewBox="0 0 12 13" fill="none" xmlns="http://www.w3.org/2000/svg">
<path d="M2.68714 10.2789C2.37432 10.2789 2.08202 10.1712 1.87176 9.97117C1.60509 9.71989 1.47689 9.3404 1.52304 8.93014L1.71279 7.26861C1.74868 6.95579 1.93843 6.5404 2.15894 6.31476L6.3692 1.85835C7.42048 0.745528 8.51791 0.714759 9.63073 1.76604C10.7436 2.81732 10.7743 3.91476 9.72304 5.02758L5.51279 9.48399C5.2974 9.71476 4.8974 9.93015 4.58458 9.98143L2.9333 10.2635C2.84612 10.2686 2.7692 10.2789 2.68714 10.2789ZM8.01535 1.76091C7.62048 1.76091 7.27689 2.00707 6.92817 2.3763L2.71791 6.83784C2.61535 6.94553 2.4974 7.20194 2.47689 7.35066L2.28714 9.0122C2.26663 9.18143 2.30766 9.31989 2.39996 9.40707C2.49227 9.49425 2.63073 9.52502 2.79996 9.49938L4.45125 9.21733C4.59996 9.19168 4.84612 9.05835 4.94868 8.95066L9.15894 4.49425C9.79484 3.81732 10.0256 3.19168 9.0974 2.31989C8.68714 1.92502 8.3333 1.76091 8.01535 1.76091Z" fill="#52575C" stroke="#52575C" stroke-width="0.2"/>
<path d="M8.73857 5.88584C8.72831 5.88584 8.71293 5.88584 8.70267 5.88584C7.10267 5.72687 5.81549 4.51148 5.56934 2.92174C5.53857 2.71148 5.68216 2.51661 5.89241 2.48071C6.10267 2.44994 6.29754 2.59353 6.33344 2.80379C6.52831 4.04481 7.53344 4.99866 8.78472 5.12174C8.99498 5.14225 9.14882 5.33199 9.12831 5.54225C9.10267 5.73712 8.93344 5.88584 8.73857 5.88584Z" fill="#52575C" stroke="#52575C" stroke-width="0.2"/>
<path d="M10.6154 11.9333H1.38462C1.17436 11.9333 1 11.7589 1 11.5487C1 11.3384 1.17436 11.1641 1.38462 11.1641H10.6154C10.8256 11.1641 11 11.3384 11 11.5487C11 11.7589 10.8256 11.9333 10.6154 11.9333Z" fill="#52575C" stroke="#52575C" stroke-width="0.2"/>
</svg>
