<svg width="24" height="24" viewBox="0 0 24 24" fill="none" xmlns="http://www.w3.org/2000/svg">
<path d="M2.59961 7.9129V17.3373C2.59961 19.1776 3.9072 19.9331 5.49569 19.0226L7.77187 17.7247C8.26585 17.4438 9.08914 17.4147 9.6025 17.6763L14.6876 20.2236C15.2009 20.4755 16.0242 20.4561 16.5182 20.1752L20.7122 17.7731C21.2449 17.4632 21.6905 16.7077 21.6905 16.0878V6.66342C21.6905 4.82311 20.3829 4.06761 18.7944 4.97808L16.5182 6.27599C16.0242 6.55688 15.2009 6.58593 14.6876 6.32442L9.6025 3.78672C9.08914 3.53488 8.26585 3.55426 7.77187 3.83515L3.57788 6.23724C3.03547 6.54719 2.59961 7.30269 2.59961 7.9129Z" stroke="black" stroke-width="1.6" stroke-linecap="round" stroke-linejoin="round"/>
<path d="M8.67188 4.25146V16.8431" stroke="black" stroke-width="1.6" stroke-linecap="round" stroke-linejoin="round"/>
<path d="M15.6172 6.78906V19.7488" stroke="black" stroke-width="1.6" stroke-linecap="round" stroke-linejoin="round"/>
</svg>
