<svg width="24" height="24" viewBox="0 0 24 24" fill="none" xmlns="http://www.w3.org/2000/svg">
<path d="M7.2578 18.9282C7.9956 18.1364 9.1203 18.1994 9.76813 19.0632L10.6769 20.2779C11.4057 21.2406 12.5844 21.2406 13.3132 20.2779L14.222 19.0632C14.8698 18.1994 15.9945 18.1364 16.7323 18.9282C18.3339 20.6378 19.6385 20.0709 19.6385 17.6776V7.53724C19.6475 3.9112 18.8017 3.00244 15.4006 3.00244H8.59844C5.19734 3.00244 4.35156 3.9112 4.35156 7.53724V17.6686C4.35156 20.0709 5.66522 20.6288 7.2578 18.9282Z" stroke="black" stroke-width="1.5" stroke-linecap="round" stroke-linejoin="round"/>
<path d="M8.48791 11.1003H8.49599" stroke="black" stroke-width="2" stroke-linecap="round" stroke-linejoin="round"/>
<path d="M11.0078 11.1001H15.9565" stroke="black" stroke-width="1.5" stroke-linecap="round" stroke-linejoin="round"/>
<path d="M8.48791 7.50115H8.49599" stroke="black" stroke-width="2" stroke-linecap="round" stroke-linejoin="round"/>
<path d="M11.0078 7.50146H15.9565" stroke="black" stroke-width="1.5" stroke-linecap="round" stroke-linejoin="round"/>
</svg>
