<svg width="24" height="24" viewBox="0 0 24 24" fill="none" xmlns="http://www.w3.org/2000/svg">
<path d="M6.12738 14.674C7.12341 14.674 8.00373 14.2206 8.55979 13.5178L14.8608 17.0775C14.7682 17.3495 14.7218 17.6443 14.7218 17.9391C14.7218 19.6169 16.1349 21 17.8492 21C19.5635 21 20.9766 19.617 20.9766 17.9391C20.9766 16.2613 19.5635 14.8782 17.8492 14.8782C16.7604 14.8782 15.8106 15.4224 15.2547 16.2386L9.02324 12.7241C9.16221 12.3841 9.25496 11.9985 9.25496 11.6131C9.25496 11.2277 9.18548 10.8423 9.04651 10.5021L15.3938 6.91983C15.973 7.64544 16.8764 8.12149 17.8726 8.12149C19.5869 8.12149 21 6.73845 21 5.06058C20.9997 3.38304 19.5866 2 17.8492 2C16.1118 2 14.7218 3.38304 14.7218 5.06091C14.7218 5.42371 14.7913 5.78652 14.9071 6.10394L8.55981 9.70887C7.98068 9.00589 7.10035 8.55248 6.12741 8.55248C4.41313 8.55248 3 9.93552 3 11.6134C3 13.2911 4.39 14.6741 6.12741 14.6741L6.12738 14.674ZM17.8491 15.7851C19.0537 15.7851 20.0497 16.7599 20.0497 17.9389C20.0497 19.118 19.0537 20.0928 17.8491 20.0928C16.6444 20.0928 15.6484 19.118 15.6484 17.9389C15.6484 16.7601 16.6444 15.7851 17.8491 15.7851ZM17.8491 2.90691C19.0537 2.90691 20.0497 3.88176 20.0497 5.06079C20.0497 6.23981 19.0537 7.21466 17.8491 7.21466C16.6444 7.21466 15.6484 6.23981 15.6484 5.06079C15.6484 3.88176 16.6444 2.90691 17.8491 2.90691ZM6.12738 9.45935C7.33202 9.45935 8.32805 10.4342 8.32805 11.6132C8.32805 12.7922 7.33202 13.7671 6.12738 13.7671C4.92274 13.7671 3.92671 12.7922 3.92671 11.6132C3.92671 10.4342 4.89966 9.45935 6.12738 9.45935Z" fill="black" stroke="black" stroke-width="0.6"/>
</svg>
